<svg width="458" height="690" viewBox="0 0 458 690" fill="none" xmlns="http://www.w3.org/2000/svg">
<g clip-path="url(#clip0_17_35)">
<path d="M114.092 295.948C126.889 295.948 137.237 285.621 137.237 272.848C137.237 260.075 126.889 249.748 114.092 249.748C101.566 249.748 90.9464 260.347 90.9464 272.848C90.9464 285.349 101.566 295.948 114.092 295.948ZM186.794 289.698H350.171C359.428 289.698 367.054 282.087 367.054 272.848C367.054 263.608 359.428 255.727 350.171 255.727H186.794C177.536 255.727 169.639 263.608 169.639 272.848C169.639 282.087 177.536 289.698 186.794 289.698ZM84.4112 658.476H373.587C429.953 658.476 458 630.214 458 573.143V161.154C458 105.443 431.043 75.8213 376.585 75.8213H370.049C370.319 77.9952 370.319 80.441 370.319 82.6153V107.074C370.319 111.422 370.049 115.77 369.232 119.575H375.768C401.361 119.575 414.16 136.152 414.16 161.698V572.601C414.16 599.775 399.727 614.722 371.409 614.722H86.5897C58.2709 614.722 43.8395 599.775 43.8395 572.601V161.698C43.8395 136.152 56.6373 119.575 82.233 119.575H88.7679C87.9512 115.77 87.6788 111.422 87.6788 107.074V82.6153C87.6788 80.441 87.6788 77.9952 87.9512 75.8213H81.416C26.9572 75.8213 0 105.443 0 161.154V573.143C0 630.214 28.0464 658.476 84.4112 658.476ZM144.861 138.055H313.14C328.933 138.055 338.463 127.999 338.463 111.15V82.6153C338.463 65.7661 328.933 55.7109 313.14 55.7109H288.087C286.182 25.002 260.586 0 229 0C197.414 0 171.818 25.002 169.912 55.7109H144.861C129.068 55.7109 119.537 65.7661 119.537 82.6153V111.15C119.537 127.999 129.068 138.055 144.861 138.055ZM229 81.5283C215.93 81.5283 205.31 70.6577 205.31 57.8851C205.31 44.5687 215.93 33.97 229 33.97C242.07 33.97 252.689 44.5687 252.689 57.8851C252.689 70.6577 242.07 81.5283 229 81.5283Z" fill="white"/>
<path d="M114.091 494.061C126.889 494.061 137.236 483.734 137.236 470.961C137.236 458.187 126.889 447.863 114.091 447.863C101.566 447.863 90.9463 458.46 90.9463 470.961C90.9463 483.461 101.566 494.061 114.091 494.061ZM186.794 487.811H350.171C359.428 487.811 367.054 480.202 367.054 470.961C367.054 461.722 359.701 454.113 350.171 454.113H186.794C177.264 454.113 169.639 461.722 169.639 470.961C169.639 480.202 177.536 487.811 186.794 487.811Z" fill="white" fill-opacity="0.25"/>
<path d="M114.091 392.151C126.889 392.151 137.236 381.824 137.236 369.051C137.236 356.277 126.889 346.223 114.091 346.223C101.293 346.223 90.9463 356.55 90.9463 369.051C90.9463 381.824 101.293 392.151 114.091 392.151ZM186.794 386.173H350.171C359.701 386.173 367.054 378.562 367.054 369.051C367.054 359.812 359.701 352.473 350.171 352.473H186.794C177.264 352.473 169.639 359.812 169.639 369.051C169.639 378.562 177.264 386.173 186.794 386.173Z" fill="white" fill-opacity="0.5"/>
</g>
<defs>
<clipPath id="clip0_17_35">
<rect width="458" height="690" fill="white"/>
</clipPath>
</defs>
</svg>
